<svg width="48" height="38" viewBox="0 0 48 38" fill="none" xmlns="http://www.w3.org/2000/svg">
<path fill-rule="evenodd" clip-rule="evenodd" d="M45.9166 37.6666C45.9166 37.6666 49 37.6666 49 34.5555C49 31.4444 45.9166 22.111 33.5833 22.111C21.25 22.111 18.1666 31.4444 18.1666 34.5555C18.1666 37.6666 21.25 37.6666 21.25 37.6666H45.9166ZM21.3178 34.5555H45.8488C45.8632 34.5538 45.8776 34.5517 45.892 34.5493L45.9166 34.543C45.9105 33.7217 45.4017 31.3386 43.5733 29.1919C41.8713 27.179 38.8805 25.2221 33.5833 25.2221C28.2892 25.2221 25.2984 27.1821 23.5933 29.1919C21.7649 31.3386 21.253 33.7248 21.25 34.543C21.2725 34.5474 21.2951 34.5516 21.3178 34.5555ZM33.5833 15.8888C35.2188 15.8888 36.7873 15.2333 37.9438 14.0664C39.1003 12.8995 39.75 11.3168 39.75 9.66658C39.75 8.01635 39.1003 6.4337 37.9438 5.26681C36.7873 4.09992 35.2188 3.44436 33.5833 3.44436C31.9478 3.44436 30.3793 4.09992 29.2228 5.26681C28.0663 6.4337 27.4166 8.01635 27.4166 9.66658C27.4166 11.3168 28.0663 12.8995 29.2228 14.0664C30.3793 15.2333 31.9478 15.8888 33.5833 15.8888ZM42.8333 9.66658C42.8333 10.8923 42.594 12.1059 42.1292 13.2383C41.6643 14.3707 40.983 15.3996 40.124 16.2662C39.2651 17.1329 38.2454 17.8204 37.1231 18.2895C36.0009 18.7585 34.798 18.9999 33.5833 18.9999C32.3686 18.9999 31.1657 18.7585 30.0435 18.2895C28.9212 17.8204 27.9015 17.1329 27.0426 16.2662C26.1836 15.3996 25.5023 14.3707 25.0374 13.2383C24.5725 12.1059 24.3333 10.8923 24.3333 9.66658C24.3333 7.19123 25.3078 4.81726 27.0426 3.06692C28.7773 1.31658 31.13 0.333252 33.5833 0.333252C36.0365 0.333252 38.3893 1.31658 40.124 3.06692C41.8587 4.81726 42.8333 7.19123 42.8333 9.66658ZM21.0526 22.9821C19.8192 22.5903 18.5478 22.3326 17.2601 22.2137C16.5366 22.1443 15.8101 22.11 15.0833 22.111C2.74996 22.111 -0.333374 31.4444 -0.333374 34.5555C-0.333374 36.6306 0.693376 37.6666 2.74996 37.6666H15.7493C15.2922 36.6953 15.0642 35.6305 15.0833 34.5555C15.0833 31.4133 16.2457 28.2026 18.4441 25.5208C19.1934 24.6061 20.066 23.7506 21.0526 22.9821ZM14.8366 25.2221C9.69363 25.2844 6.77371 27.2133 5.09329 29.1919C3.25254 31.351 2.74996 33.7435 2.74996 34.5555H12C12 31.3044 12.9959 28.0657 14.8366 25.2221ZM4.29163 11.2221C4.29163 8.74679 5.26618 6.37282 7.00089 4.62248C8.7356 2.87214 11.0884 1.88881 13.5416 1.88881C15.9949 1.88881 18.3477 2.87214 20.0824 4.62248C21.8171 6.37282 22.7916 8.74679 22.7916 11.2221C22.7916 13.6975 21.8171 16.0715 20.0824 17.8218C18.3477 19.5721 15.9949 20.5555 13.5416 20.5555C11.0884 20.5555 8.7356 19.5721 7.00089 17.8218C5.26618 16.0715 4.29163 13.6975 4.29163 11.2221ZM13.5416 4.99992C11.9061 4.99992 10.3376 5.65547 9.18113 6.82236C8.02466 7.98926 7.37496 9.5719 7.37496 11.2221C7.37496 12.8724 8.02466 14.455 9.18113 15.6219C10.3376 16.7888 11.9061 17.4444 13.5416 17.4444C15.1771 17.4444 16.7456 16.7888 17.9021 15.6219C19.0586 14.455 19.7083 12.8724 19.7083 11.2221C19.7083 9.5719 19.0586 7.98926 17.9021 6.82236C16.7456 5.65547 15.1771 4.99992 13.5416 4.99992Z" fill="white"/>
</svg>
